<svg xmlns="http://www.w3.org/2000/svg" width="51" height="30" viewBox="0 0 51 30"><defs><style>.a,.b{stroke:none;}.b{fill:#707070;}</style></defs><g transform="translate(-51 -356)"><g transform="translate(51 386) rotate(-90)"><path class="a" d="M 29.09787559509277 23.5 L 0.9021259546279907 23.5 L 15.00000095367432 0.9434000253677368 L 29.09787559509277 23.5 Z"/><path class="b" d="M 15.00000095367432 1.886800765991211 L 1.804250717163086 23 L 28.19575119018555 23 L 15.00000095367432 1.886800765991211 M 15.00000095367432 0 L 30 24 L 1.9073486328125e-06 24 L 15.00000095367432 0 Z"/></g><g transform="translate(78 386) rotate(-90)"><path class="a" d="M 29.09787559509277 23.5 L 0.9021259546279907 23.5 L 15.00000095367432 0.9434000253677368 L 29.09787559509277 23.5 Z"/><path class="b" d="M 15.00000095367432 1.886800765991211 L 1.804250717163086 23 L 28.19575119018555 23 L 15.00000095367432 1.886800765991211 M 15.00000095367432 0 L 30 24 L 1.9073486328125e-06 24 L 15.00000095367432 0 Z"/></g></g></svg>